<svg width="24" height="25" viewBox="0 0 24 25" fill="none" xmlns="http://www.w3.org/2000/svg">
<g clip-path="url(#clip0)">
<path d="M23.2863 10.6309L12.8938 2.49482C12.3614 2.07757 11.6296 2.07757 11.0968 2.49482L6.89372 5.78507V4.99124C6.89372 4.12532 6.22234 3.42251 5.39411 3.42251H4.00794C3.17959 3.42251 2.50833 4.12532 2.50833 4.99124V9.21792L0.601259 10.7113C0.0839229 11.116 -0.127059 11.8215 0.076864 12.4626C0.280787 13.1037 0.854162 13.5361 1.50001 13.5361H2.50884V21.0095C2.50884 23.182 3.18021 23.1819 4.00845 23.1819H19.9821C20.8104 23.1819 21.4816 23.1819 21.4816 21.0095V13.5361H22.4904C22.4939 13.5361 22.4969 13.5361 22.5004 13.5361C23.3287 13.5361 24 12.8338 24 11.9674C23.9996 11.4022 23.7142 10.907 23.2863 10.6309Z" fill="#A1A7B3"/>
</g>
<defs>
<clipPath id="clip0">
<rect width="24" height="24" fill="white" transform="translate(0 0.181885)"/>
</clipPath>
</defs>
</svg>
